<svg xmlns="http://www.w3.org/2000/svg" viewBox="0 0 512 512" role="img" aria-labelledby="title desc">
<title id="title">JT favicon</title>
<desc id="desc">Jason Tunstill JT monogram on a dark navy background with a cyan blue border.</desc>
<defs>
  <linearGradient id="bg" x1="0" y1="0" x2="1" y2="1">
    <stop offset="0" stop-color="#071525"/>
    <stop offset="1" stop-color="#020817"/>
  </linearGradient>
  <linearGradient id="border" x1="0" y1="0" x2="1" y2="1">
    <stop offset="0" stop-color="#22d3ee"/>
    <stop offset="1" stop-color="#0b6cff"/>
  </linearGradient>
  <linearGradient id="j" x1="0" y1="0" x2="0.8" y2="1">
    <stop offset="0" stop-color="#ffffff"/>
    <stop offset="0.7" stop-color="#e0f2fe"/>
    <stop offset="1" stop-color="#7dd3fc"/>
  </linearGradient>
  <linearGradient id="t" x1="0" y1="0" x2="0.8" y2="1">
    <stop offset="0" stop-color="#22d3ee"/>
    <stop offset="0.55" stop-color="#0ea5e9"/>
    <stop offset="1" stop-color="#0b6cff"/>
  </linearGradient>
</defs>
<rect width="512" height="512" rx="92" fill="url(#bg)"/>
<rect x="18" y="18" width="476" height="476" rx="78" fill="none" stroke="url(#border)" stroke-width="18"/>
<path d="M132 125 H248 V326 C248 390 213 425 160 425 C105 425 73 390 73 334 H126 C126 360 138 375 160 375 C183 375 195 358 195 326 V177 H178 Z" fill="url(#j)"/>
<path d="M267 125 H429 V180 H267 Z" fill="url(#t)"/>
<path d="M322 194 H376 V425 H322 Z" fill="url(#t)"/>
</svg>
